<mxfile host="app.diagrams.net" modified="2023-10-17T07:23:26.534Z" agent="Mozilla/5.0 (Windows NT 10.0; Win64; x64) AppleWebKit/537.36 (KHTML, like Gecko) Chrome/95.0.4638.69 Safari/537.36" etag="VjBV3X4fSBUqOe6BE3jd" version="22.0.4" type="github">
  <diagram name="第 1 页" id="8j2-uB9j-Rrtav8buDc3">
    <mxGraphModel dx="934" dy="554" grid="0" gridSize="10" guides="1" tooltips="1" connect="1" arrows="1" fold="1" page="1" pageScale="1" pageWidth="827" pageHeight="1169" math="0" shadow="0">
      <root>
        <mxCell id="0" />
        <mxCell id="1" parent="0" />
        <mxCell id="TIaOV4wdlszxoYT2a5FB-6" style="edgeStyle=orthogonalEdgeStyle;rounded=0;orthogonalLoop=1;jettySize=auto;html=1;exitX=0.5;exitY=1;exitDx=0;exitDy=0;" parent="1" source="TIaOV4wdlszxoYT2a5FB-1" edge="1">
          <mxGeometry relative="1" as="geometry">
            <mxPoint x="182" y="184" as="targetPoint" />
          </mxGeometry>
        </mxCell>
        <mxCell id="lOzhp4_Gjif28xtFy34S-1" value="获取已入库的子订单" style="edgeLabel;html=1;align=center;verticalAlign=middle;resizable=0;points=[];" vertex="1" connectable="0" parent="TIaOV4wdlszxoYT2a5FB-6">
          <mxGeometry x="-0.205" y="1" relative="1" as="geometry">
            <mxPoint as="offset" />
          </mxGeometry>
        </mxCell>
        <mxCell id="TIaOV4wdlszxoYT2a5FB-1" value="已入库" style="rounded=0;whiteSpace=wrap;html=1;fillColor=#dae8fc;strokeColor=#6c8ebf;" parent="1" vertex="1">
          <mxGeometry x="122" y="44" width="120" height="60" as="geometry" />
        </mxCell>
        <mxCell id="TIaOV4wdlszxoYT2a5FB-5" style="edgeStyle=orthogonalEdgeStyle;rounded=0;orthogonalLoop=1;jettySize=auto;html=1;exitX=0.5;exitY=1;exitDx=0;exitDy=0;" parent="1" source="TIaOV4wdlszxoYT2a5FB-2" edge="1">
          <mxGeometry relative="1" as="geometry">
            <mxPoint x="182" y="304" as="targetPoint" />
          </mxGeometry>
        </mxCell>
        <mxCell id="TIaOV4wdlszxoYT2a5FB-2" value="日账单" style="rounded=0;whiteSpace=wrap;html=1;fillColor=#dae8fc;strokeColor=#6c8ebf;" parent="1" vertex="1">
          <mxGeometry x="122" y="194" width="120" height="60" as="geometry" />
        </mxCell>
        <mxCell id="TIaOV4wdlszxoYT2a5FB-7" style="edgeStyle=orthogonalEdgeStyle;rounded=0;orthogonalLoop=1;jettySize=auto;html=1;exitX=0.5;exitY=1;exitDx=0;exitDy=0;" parent="1" source="TIaOV4wdlszxoYT2a5FB-3" edge="1">
          <mxGeometry relative="1" as="geometry">
            <mxPoint x="182" y="424" as="targetPoint" />
          </mxGeometry>
        </mxCell>
        <mxCell id="TIaOV4wdlszxoYT2a5FB-3" value="对账单" style="rounded=0;whiteSpace=wrap;html=1;fillColor=#dae8fc;strokeColor=#6c8ebf;" parent="1" vertex="1">
          <mxGeometry x="122" y="314" width="120" height="60" as="geometry" />
        </mxCell>
        <mxCell id="TIaOV4wdlszxoYT2a5FB-4" value="总账单" style="rounded=0;whiteSpace=wrap;html=1;fillColor=#dae8fc;strokeColor=#6c8ebf;" parent="1" vertex="1">
          <mxGeometry x="122" y="434" width="120" height="60" as="geometry" />
        </mxCell>
        <mxCell id="TIaOV4wdlszxoYT2a5FB-9" style="edgeStyle=orthogonalEdgeStyle;rounded=0;orthogonalLoop=1;jettySize=auto;html=1;exitX=0;exitY=0.5;exitDx=0;exitDy=0;" parent="1" source="TIaOV4wdlszxoYT2a5FB-8" edge="1">
          <mxGeometry relative="1" as="geometry">
            <mxPoint x="192" y="284" as="targetPoint" />
          </mxGeometry>
        </mxCell>
        <mxCell id="TIaOV4wdlszxoYT2a5FB-8" value="扣款单" style="rounded=0;whiteSpace=wrap;html=1;" parent="1" vertex="1">
          <mxGeometry x="332" y="254" width="120" height="60" as="geometry" />
        </mxCell>
      </root>
    </mxGraphModel>
  </diagram>
</mxfile>
